<?xml version="1.0" encoding="UTF-8" standalone="no"?>
<svg
   width="64"
   height="64"
   viewBox="0 0 64 64"
   shape-rendering="geometricPrecision"
   style="stroke-linecap:round;stroke-linejoin:round"
   version="1.1"
   id="svg5"
   sodipodi:docname="curved.svg"
   inkscape:version="1.4 (e7c3feb1, 2024-10-09)"
   xmlns:inkscape="http://www.inkscape.org/namespaces/inkscape"
   xmlns:sodipodi="http://sodipodi.sourceforge.net/DTD/sodipodi-0.dtd"
   xmlns="http://www.w3.org/2000/svg"
   xmlns:svg="http://www.w3.org/2000/svg">
  <defs
     id="defs5" />
  <sodipodi:namedview
     id="namedview5"
     pagecolor="#ffffff"
     bordercolor="#000000"
     borderopacity="0.25"
     inkscape:showpageshadow="2"
     inkscape:pageopacity="0.0"
     inkscape:pagecheckerboard="0"
     inkscape:deskcolor="#d1d1d1"
     inkscape:zoom="2.1599902"
     inkscape:cx="61.574352"
     inkscape:cy="-1.6203777"
     inkscape:window-width="1680"
     inkscape:window-height="1022"
     inkscape:window-x="0"
     inkscape:window-y="0"
     inkscape:window-maximized="1"
     inkscape:current-layer="svg5" />
  <path
     d="m 0.102236,49.571885 c 2.5518212,8.434505 8.0807668,8.434505 10.632588,0 2.551821,-8.434504 -2.5518212,-26.709266 0,-35.143771 2.551821,-8.434504 8.080767,-8.434504 10.632588,0 2.551821,8.434505 -2.551821,26.709267 0,35.143771 2.551821,8.434505 8.080766,8.434505 10.632588,0 2.551822,-8.434504 -2.551822,-26.709266 0,-35.143771 2.551822,-8.434504 8.080766,-8.434504 10.632587,0 2.551821,8.434505 -2.551821,26.709267 0,35.143771 2.551821,8.434505 8.080767,8.434505 10.632588,0 2.551821,-8.434504 -2.551821,-26.709266 0,-35.143771 2.551821,-8.434504 8.080767,-8.434504 10.632589,0"
     stroke="#000000"
     fill="none"
     stroke-width="0.204472"
     stroke-linejoin="round"
     stroke-linecap="round"
     vector-effect="non-scaling-stroke"
     id="path1"
     sodipodi:nodetypes="cssssssssssc"
     style="stroke-linecap:round;stroke-linejoin:round;stroke-width:1.5;stroke-dasharray:none" />
</svg>
