<?xml version="1.0" encoding="UTF-8" standalone="no"?>
<!-- Created with Inkscape (http://www.inkscape.org/) -->

<svg
   width="500"
   height="125"
   viewBox="0 0 132.29166 33.072917"
   version="1.1"
   id="svg1"
   xml:space="preserve"
   inkscape:version="1.4.3 (0d15f750, 2025-12-25)"
   sodipodi:docname="loading.svg"
   xmlns:inkscape="http://www.inkscape.org/namespaces/inkscape"
   xmlns:sodipodi="http://sodipodi.sourceforge.net/DTD/sodipodi-0.dtd"
   xmlns="http://www.w3.org/2000/svg"
   xmlns:svg="http://www.w3.org/2000/svg"><sodipodi:namedview
     id="namedview1"
     pagecolor="#ffffff"
     bordercolor="#000000"
     borderopacity="0.25"
     inkscape:showpageshadow="2"
     inkscape:pageopacity="0.0"
     inkscape:pagecheckerboard="0"
     inkscape:deskcolor="#d1d1d1"
     inkscape:document-units="mm"
     showguides="true"
     inkscape:zoom="1.4789506"
     inkscape:cx="146.38758"
     inkscape:cy="151.12067"
     inkscape:window-width="1920"
     inkscape:window-height="1062"
     inkscape:window-x="0"
     inkscape:window-y="25"
     inkscape:window-maximized="1"
     inkscape:current-layer="g4"><sodipodi:guide
       position="151.14644,-74.417996"
       orientation="0,-1"
       id="guide2"
       inkscape:locked="false" /><sodipodi:guide
       position="73.924186,-60.151136"
       orientation="0,-1"
       id="guide3"
       inkscape:locked="false" /><sodipodi:guide
       position="130.70109,-79.639016"
       orientation="0,-1"
       id="guide4"
       inkscape:locked="false" /><sodipodi:guide
       position="131.90334,-53.950796"
       orientation="0,-1"
       id="guide5"
       inkscape:locked="false" /><sodipodi:guide
       position="95.546167,1.9648609"
       orientation="0,-1"
       id="guide12"
       inkscape:locked="false" /><sodipodi:guide
       position="38.30779,24.311028"
       orientation="0,-1"
       id="guide13"
       inkscape:locked="false" /><sodipodi:guide
       position="49.144522,8.5806943"
       orientation="0,-1"
       id="guide6"
       inkscape:locked="false" /></sodipodi:namedview><defs
     id="defs1" /><g
     inkscape:label="Ebene 1 Kopie"
     inkscape:groupmode="layer"
     id="g5"><g
       id="g4"
       transform="matrix(1.0278622,0,0,1.1242534,-37.86131,-76.709363)"
       style="display:inline"><path
         style="display:inline;fill:none;stroke:#000000;stroke-width:2.64583;stroke-linecap:round;stroke-linejoin:round;stroke-dasharray:none"
         d="m 112.40806,70.293205 0.31235,-0.473332"
         id="path3"
         sodipodi:nodetypes="cc" /><path
         style="fill:none;stroke:#000000;stroke-width:2.6047;stroke-linecap:round;stroke-linejoin:round;stroke-dasharray:none"
         d="m 158.58356,84.662029 c -1.41002,1.754189 -2.95034,3.403995 -4.57849,4.957111 -3.20992,5.526099 -9.48896,-0.508596 -13.46384,3.250551 1.32241,3.353688 8.2023,1.892404 10.45934,-0.741686 0.88869,-4.19721 0.5269,-8.560329 0.63515,-12.832236 -0.005,-4.038953 0.0356,-0.763993 -0.18949,1.32195 0.20182,4.085472 -3.35231,10.123447 -7.88953,6.813348 -2.58164,-2.730214 -2.57508,-8.872497 1.33905,-10.343078 5.53716,-1.361026 7.25301,6.761474 3.72726,9.880535 -2.63572,2.591767 -6.11553,0.658711 -8.80653,-0.675795 -1.93355,1.499502 -5.13205,3.45322 -7.20881,1.515802 -0.18893,-0.944225 -0.0492,-1.985593 0.19982,-3.05829 0.24896,-1.072697 0.6071,-2.176723 0.85489,-3.246263 0.24778,-1.06954 0.3852,-2.104595 0.19272,-3.03935 -0.19248,-0.934755 -0.71486,-1.76921 -1.78668,-2.437551 -4.87915,-0.587655 -6.94497,5.517971 -7.21722,9.48402 -0.84095,5.373499 1.95574,-2.530697 0.62485,-4.404687 0.0757,-1.665599 -1.05866,-3.255192 -2.25376,-3.803784 -4.31515,-1.980795 -2.64449,11.701649 -8.63189,11.117434 -3.75013,-2.031869 -3.16205,-7.231824 -3.52209,-10.878481 -0.0822,-5.371059 0.41572,2.334937 -0.46398,4.202936 -0.51937,3.038812 -3.99124,7.92463 -7.23991,5.157352 -2.91164,-4.680242 -2.32625,-10.589025 -2.30495,-15.889746 -0.0106,5.556974 0.22944,11.110756 0.44564,16.66249 0.14654,-0.586179 -0.0746,-6.113624 -1.830028,-8.047676 -2.277274,-4.022357 -8.271136,-1.839696 -7.967986,2.659071 -1.703885,5.565033 6.680124,8.358465 8.746874,3.023701 -1.336266,-4.104128 -7.456282,-0.351409 -9.747558,1.590901 -4.149128,2.706799 -2.690951,-5.65512 -5.422626,-7.029638 -1.35611,-2.350347 -9.365519,1.45386 -6.412011,-2.104279 2.968004,-3.1604 9.102711,-0.799298 8.416265,3.809176 0.229747,3.410288 -3.802842,9.415417 -7.148602,5.659459 -2.765276,-3.010569 -0.294031,-10.270701 -6.301601,-8.90074 -4.255573,1.728173 -8.87676,3.326849 -13.528711,2.863315 -0.570009,-3.028011 6.096666,-4.816727 8.871553,-2.930791 4.858873,0.658448 5.831187,6.827383 1.539289,8.982945 -4.038505,3.264862 -8.674575,-0.494498 -10.682633,-4.144827 -0.440725,0.928909 -0.89668,6.953143 -4.900497,6.492151 -4.526054,-0.445102 -6.280451,-5.497108 -9.576109,-7.958683 -3.575506,-3.318844 -9.61805,3.212518 -5.184853,5.946871 4.828779,1.546103 11.403451,-1.235809 12.274005,-6.598708 1.248608,-3.394248 -1.379018,-7.921081 1.090701,-10.635746 2.807248,-1.889719 11.751116,0.844562 6.546163,4.005979 C 54.28356,75.330189 48.492586,72.437146 43.08017,70.212304"
         id="path9"
         sodipodi:nodetypes="cccccccccccssscccscccccccccccccccccccccccccc" /></g></g></svg>
